<?xml version="1.0" encoding="UTF-8"?>
<svg xmlns="http://www.w3.org/2000/svg" version="1.1" viewBox="0 0 40 28.1">
  <!-- Generator: Adobe Illustrator 29.6.1, SVG Export Plug-In . SVG Version: 2.1.1 Build 9)  -->
  <defs>
    <style>
      .st0 {
        fill: #131619;
      }

      .st1 {
        fill: #f15a2d;
      }

      .st2 {
        display: none;
      }
    </style>
  </defs>
  <g id="Layer_1" class="st2">
    <path d="M.8,28.1h19.2s0,0,0,0h19.2c.2,0,.4,0,.6-.2.2-.2.2-.4.2-.6V3.1c0-.2,0-.4-.2-.6-.2-.2-.4-.2-.6-.2h-2.1s0,0,0,0c-2.7-1.5-5.7-2.2-8.7-2.2s-5.7.7-8.3,2C17.4.7,14.5,0,11.7,0S5.7.7,3,2.2c0,0,0,0,0,0H.8c-.2,0-.4,0-.6.2-.2.2-.2.4-.2.6v24.2c0,.2,0,.4.2.6.2.2.4.2.6.2ZM37.4,26V3.9h.9v22.5h-1c0-.1.1-.3.1-.4ZM21,26.4c2.3-1.2,4.8-1.7,7.3-1.7s5,.6,7.3,1.7h-14.7ZM20.8,3.9v-.4c2.3-1.2,4.9-1.8,7.5-1.8s5.1.6,7.5,1.8v21.1c-2.4-1.1-4.9-1.6-7.5-1.6s-5.1.5-7.5,1.6V3.9ZM4.4,26.4c2.3-1.2,4.8-1.7,7.3-1.7s5,.6,7.3,1.7H4.4ZM4.2,3.5c2.3-1.2,4.9-1.8,7.5-1.8s5.1.6,7.5,1.8c0,7,0,14.1,0,21.1-2.4-1.1-4.9-1.6-7.5-1.6s-5.1.5-7.5,1.6c0-7.1,0-14.1,0-21.2ZM1.7,3.9h.9c0,7.4,0,14.7,0,22.1,0,.2,0,.3.1.4h-1V3.9Z"/>
  </g>
  <g id="Layer_2">
    <path class="st1" d="M29.5,5.7c4.7,0,8.6,3.8,8.6,8.5s-3.8,8.5-8.6,8.5H10.4c-4.7,0-8.6-3.8-8.6-8.5S5.7,5.7,10.4,5.7h19.1ZM29.5,3.9H10.4C4.7,3.9,0,8.5,0,14.2s4.7,10.3,10.4,10.3h19.1c5.7,0,10.4-4.6,10.4-10.3s-4.7-10.3-10.4-10.3Z"/>
    <path class="st0" d="M29.2,19.2h-1.7s0,0,0,0v-7.7l-6.3,5.5c-.6.5-1.5.5-2.2,0l-6.3-5.5v7.7s0,0,0,0h-1.7s0,0,0,0v-8c0-.7.4-1.4,1-1.6.6-.3,1.3-.2,1.9.3l6.4,5.5,6.4-5.5c.5-.5,1.2-.6,1.9-.3.6.3,1,1,1,1.6v8s0,0,0,0h0Z"/>
  </g>
</svg>